<svg xmlns="http://www.w3.org/2000/svg" viewBox="0 0 600 620" fill="none" role="img" aria-hidden="true">
  <path
    d="M300 40 C380 18 470 44 512 104 C558 166 588 226 566 306
       C550 372 566 444 504 496 C442 550 358 586 276 574
       C196 562 114 540 72 468 C32 398 24 316 58 236
       C90 158 132 96 204 68 C234 54 268 44 300 40 Z"
    fill="#f8d9cf"
  />

  <g transform="rotate(11 335 300)">
    <rect x="222" y="126" width="222" height="292" rx="14" fill="#fdf0ea" stroke="#4a2a86" stroke-width="2.5" />
  </g>
  <g transform="rotate(5 320 300)">
    <rect x="198" y="132" width="232" height="302" rx="15" fill="#ece7fb" stroke="#4a2a86" stroke-width="2.5" />
  </g>

  <g transform="rotate(-4 270 300)">
    <rect x="150" y="140" width="250" height="320" rx="16" fill="#ffffff" stroke="#4a2a86" stroke-width="4" />

    <g stroke="#1a1a1a" stroke-width="3" fill="none">
      <path d="M164 148 q8 -16 16 0" />
      <path d="M192 148 q8 -16 16 0" />
      <path d="M220 148 q8 -16 16 0" />
      <path d="M248 148 q8 -16 16 0" />
      <path d="M276 148 q8 -16 16 0" />
      <path d="M304 148 q8 -16 16 0" />
      <path d="M332 148 q8 -16 16 0" />
      <path d="M360 148 q8 -16 16 0" />
    </g>
    <g fill="#e2b98c">
      <circle cx="172" cy="140" r="2.4" />
      <circle cx="200" cy="140" r="2.4" />
      <circle cx="228" cy="140" r="2.4" />
      <circle cx="256" cy="140" r="2.4" />
      <circle cx="284" cy="140" r="2.4" />
      <circle cx="312" cy="140" r="2.4" />
      <circle cx="340" cy="140" r="2.4" />
      <circle cx="368" cy="140" r="2.4" />
    </g>

    <rect x="178" y="205" width="26" height="26" rx="6" fill="none" stroke="#6d3fc0" stroke-width="3.5" />
    <path d="M184 218 L194 228 L208 202" stroke="#6d3fc0" stroke-width="3.5" fill="none" stroke-linecap="round" stroke-linejoin="round" />
    <path d="M222 214 Q248 196 270 214 Q292 232 322 210" stroke="#2b2b2b" stroke-width="3" fill="none" stroke-linecap="round" />

    <rect x="178" y="255" width="26" height="26" rx="6" fill="none" stroke="#6d3fc0" stroke-width="3.5" />
    <path d="M184 268 L194 278 L208 252" stroke="#6d3fc0" stroke-width="3.5" fill="none" stroke-linecap="round" stroke-linejoin="round" />
    <path d="M222 260 Q240 246 258 262 Q280 282 322 256" stroke="#2b2b2b" stroke-width="3" fill="none" stroke-linecap="round" />

    <rect x="178" y="305" width="26" height="26" rx="6" fill="none" stroke="#6d3fc0" stroke-width="3.5" />
    <path d="M184 318 L194 328 L208 302" stroke="#6d3fc0" stroke-width="3.5" fill="none" stroke-linecap="round" stroke-linejoin="round" />
    <path d="M222 312 Q244 296 264 314 Q286 332 316 308" stroke="#2b2b2b" stroke-width="3" fill="none" stroke-linecap="round" />

    <rect x="178" y="355" width="26" height="26" rx="6" fill="none" stroke="#6d3fc0" stroke-width="3.5" />
    <path d="M222 366 Q238 356 250 368" stroke="#2b2b2b" stroke-width="3" fill="none" stroke-linecap="round" />
  </g>

  <g transform="rotate(-36 380 410)">
    <rect x="352" y="190" width="22" height="230" rx="11" fill="#f6cfe6" stroke="#4a2a86" stroke-width="3" />
    <path d="M352 190 L374 190 L363 162 Z" fill="#4a2a86" />
    <rect x="352" y="322" width="22" height="16" fill="#4a2a86" />
  </g>

  <path
    d="M348 452 C328 440 320 410 338 388 C354 368 380 364 400 378
       L446 410 C464 424 468 452 452 470 C434 490 404 494 384 480 Z"
    fill="#f6d5ac"
    stroke="#c99a63"
    stroke-width="2"
  />
  <path
    d="M392 384 C406 372 424 374 432 388 C440 402 434 416 420 424"
    fill="#f6d5ac"
    stroke="#c99a63"
    stroke-width="2"
  />
  <path
    d="M370 400 C384 390 400 392 406 404"
    fill="none"
    stroke="#c99a63"
    stroke-width="1.5"
  />
  <ellipse cx="429" cy="392" rx="7" ry="10" fill="#4a2a86" transform="rotate(-30 429 392)" />
  <ellipse cx="356" cy="404" rx="6" ry="8" fill="#4a2a86" transform="rotate(-20 356 404)" />
</svg>
