<svg xmlns="http://www.w3.org/2000/svg" viewBox="0 0 760 660" fill="none" role="img" aria-hidden="true">
  <path
    d="M380 30 C500 16 610 62 665 150 C718 236 706 344 672 428
       C638 512 566 594 462 620 C356 646 236 634 158 562
       C82 492 56 396 74 300 C92 206 152 118 246 76
       C288 56 336 36 380 30 Z"
    fill="#f8d9cf"
  />

  <g transform="rotate(-14 150 210)">
    <rect x="70" y="180" width="170" height="120" rx="8" fill="#fdf0ea" stroke="#6d3fc0" stroke-width="3" />
  </g>
  <g transform="rotate(-6 165 210)">
    <rect x="80" y="170" width="170" height="120" rx="8" fill="#ffffff" stroke="#4a2a86" stroke-width="3" />
    <path d="M110 260 L110 220 L150 190 L190 220 L190 260 Z" fill="none" stroke="#4a2a86" stroke-width="2.5" stroke-linejoin="round" />
    <rect x="140" y="235" width="20" height="25" fill="none" stroke="#4a2a86" stroke-width="2.5" />
    <rect x="115" y="228" width="14" height="14" fill="none" stroke="#4a2a86" stroke-width="2" />
  </g>

  <g transform="translate(158 118)">
    <line x1="0" y1="0" x2="-14" y2="-16" stroke="#4a2a86" stroke-width="4" stroke-linecap="round" />
    <line x1="24" y1="0" x2="38" y2="-16" stroke="#4a2a86" stroke-width="4" stroke-linecap="round" />
    <circle cx="12" cy="8" r="4" fill="#4a2a86" />
    <circle cx="12" cy="52" r="44" fill="#ffffff" stroke="#4a2a86" stroke-width="4" />
    <line x1="12" y1="52" x2="12" y2="24" stroke="#4a2a86" stroke-width="3" stroke-linecap="round" />
    <line x1="12" y1="52" x2="32" y2="52" stroke="#4a2a86" stroke-width="3" stroke-linecap="round" />
    <circle cx="12" cy="52" r="3" fill="#4a2a86" />
  </g>

  <g transform="rotate(6 400 300)">
    <rect x="330" y="100" width="200" height="270" rx="10" fill="#fdf0ea" stroke="#6d3fc0" stroke-width="3" />
  </g>
  <g transform="rotate(-3 385 300)">
    <rect x="310" y="110" width="200" height="270" rx="12" fill="#ffffff" stroke="#4a2a86" stroke-width="4" />
    <path d="M345 165 Q365 148 385 164 Q405 180 428 158 Q448 140 468 156"
          stroke="#2b2b2b" stroke-width="3" fill="none" stroke-linecap="round" />
    <path d="M345 195 Q360 186 378 196" stroke="#2b2b2b" stroke-width="3" fill="none" stroke-linecap="round" />
  </g>

  <g transform="rotate(18 300 470)">
    <line x1="278" y1="430" x2="322" y2="430" stroke="#4a2a86" stroke-width="3" />
    <circle cx="266" cy="452" r="26" fill="#ddc8f7" fill-opacity="0.35" stroke="#4a2a86" stroke-width="3" />
    <circle cx="266" cy="504" r="24" fill="#ddc8f7" fill-opacity="0.3" stroke="#4a2a86" stroke-width="3" />
    <line x1="266" y1="478" x2="266" y2="480" stroke="#4a2a86" stroke-width="3" />
    <circle cx="266" cy="428" r="4" fill="#4a2a86" />
  </g>

  <g transform="translate(420 448)">
    <circle cx="0" cy="0" r="16" fill="none" stroke="#4a2a86" stroke-width="3.5" />
    <g transform="rotate(-16)">
      <line x1="0" y1="14" x2="0" y2="56" stroke="#4a2a86" stroke-width="3.5" stroke-linecap="round" />
      <line x1="0" y1="48" x2="7" y2="48" stroke="#4a2a86" stroke-width="3.5" stroke-linecap="round" />
      <line x1="0" y1="56" x2="6" y2="56" stroke="#4a2a86" stroke-width="3.5" stroke-linecap="round" />
    </g>
    <g transform="rotate(2)">
      <line x1="0" y1="14" x2="0" y2="64" stroke="#4a2a86" stroke-width="3.5" stroke-linecap="round" />
      <line x1="0" y1="54" x2="7" y2="54" stroke="#4a2a86" stroke-width="3.5" stroke-linecap="round" />
      <line x1="0" y1="64" x2="6" y2="64" stroke="#4a2a86" stroke-width="3.5" stroke-linecap="round" />
    </g>
    <g transform="rotate(18)">
      <line x1="0" y1="14" x2="0" y2="52" stroke="#4a2a86" stroke-width="3.5" stroke-linecap="round" />
      <line x1="0" y1="44" x2="7" y2="44" stroke="#4a2a86" stroke-width="3.5" stroke-linecap="round" />
      <line x1="0" y1="52" x2="6" y2="52" stroke="#4a2a86" stroke-width="3.5" stroke-linecap="round" />
    </g>
  </g>

  <g transform="rotate(-18 590 210)">
    <rect x="540" y="150" width="120" height="76" rx="10" fill="#ffffff" stroke="#4a2a86" stroke-width="3" />
    <rect x="558" y="150" width="18" height="76" fill="#4a2a86" />
  </g>
  <g transform="rotate(-6 590 210)">
    <rect x="540" y="150" width="120" height="76" rx="10" fill="#ffffff" stroke="#4a2a86" stroke-width="3" />
    <rect x="562" y="150" width="18" height="76" fill="#6d3fc0" />
  </g>
  <g transform="rotate(8 590 210)">
    <rect x="540" y="150" width="120" height="76" rx="10" fill="#fdf0ea" stroke="#6d3fc0" stroke-width="3" />
    <rect x="576" y="150" width="18" height="76" fill="#4a2a86" />
  </g>

  <g transform="rotate(48 560 470)">
    <rect x="540" y="330" width="22" height="200" rx="11" fill="#ddc8f7" stroke="#4a2a86" stroke-width="3" />
    <path d="M540 330 L562 330 L551 300 Z" fill="#4a2a86" />
    <rect x="540" y="450" width="22" height="16" fill="#6d3fc0" />
  </g>
</svg>
